<?xml version="1.0" standalone="no"?>
<!DOCTYPE svg PUBLIC "-//W3C//DTD SVG 20010904//EN"
 "http://www.w3.org/TR/2001/REC-SVG-20010904/DTD/svg10.dtd">
<svg version="1.0" xmlns="http://www.w3.org/2000/svg" width="40.000000pt" height="40.000000pt" viewBox="0 0 40.000000 40.000000" preserveAspectRatio="xMidYMid meet">

    <g transform="translate(0.000000,40.000000) scale(0.100000,-0.100000)" fill="#0d77c1" stroke="none">
        <path d="M200 212 c0 -108 4 -172 10 -172 6 0 10 50 10 129 0 76 4 132 10 136 16 10 11 41 -10 60 -20 18 -20 17 -20 -153z"/>
        <path d="M163 363 c-7 -3 -13 -21 -13 -41 0 -33 1 -35 16 -20 18 18 15 67 -3 61z"/>
        <path d="M260 176 c0 -115 2 -136 15 -136 13 0 15 19 13 132 -2 94 -7 133 -15 136 -10 3 -13 -28 -13 -132z"/>
        <path d="M96 242 c-2 -4 -6 -44 -7 -87 -2 -80 -2 -80 30 -102 48 -32 159 -53 188 -35 6 4 -17 8 -52 9 -63 2 -175 40 -147 50 8 3 12 31 12 89 0 74 -8 101 -24 76z"/>
    </g>
</svg>


